<svg width="24" height="24" viewBox="0 0 24 24" fill="none" xmlns="http://www.w3.org/2000/svg">
<rect width="24" height="24" fill="white"/>
<path fill-rule="evenodd" clip-rule="evenodd" d="M6.37811 10.021C6.37811 10.1341 6.31438 10.2001 6.20511 10.2001H4.8393C4.73003 10.2001 4.66629 10.1341 4.66629 10.021V5.20295C4.66629 5.15581 4.63898 5.12753 4.59345 5.12753H3.173C3.06374 5.12753 3 5.06153 3 4.94838V3.77924C3 3.6661 3.06374 3.6001 3.173 3.6001H7.91693C8.0262 3.6001 8.08994 3.6661 8.08994 3.77924V4.94838C8.08994 5.06153 8.0262 5.12753 7.91693 5.12753H6.45096C6.40543 5.12753 6.37811 5.15581 6.37811 5.20295V10.021ZM10.3208 10.021C10.3208 10.1341 10.257 10.2001 10.1478 10.2001H8.78195C8.67268 10.2001 8.60895 10.1341 8.60895 10.021V3.77924C8.60895 3.6661 8.67268 3.6001 8.78195 3.6001H10.1387C10.2297 3.6001 10.3026 3.63781 10.3481 3.72267L11.4498 5.5801C11.4772 5.63667 11.5318 5.63667 11.5591 5.5801L12.6609 3.72267C12.7064 3.63781 12.7792 3.6001 12.8703 3.6001H14.227C14.3363 3.6001 14.4 3.6661 14.4 3.77924V10.021C14.4 10.1341 14.3363 10.2001 14.227 10.2001H12.8612C12.7519 10.2001 12.6882 10.1341 12.6882 10.021V6.69267C12.6882 6.61724 12.6335 6.60781 12.5971 6.66438L12.0326 7.63553C11.9871 7.72038 11.9142 7.7581 11.8232 7.7581H11.1858C11.0947 7.7581 11.0219 7.72038 10.9764 7.63553L10.4118 6.66438C10.3754 6.60781 10.3208 6.61724 10.3208 6.69267V10.021Z" fill="#F16718"/>
</svg>
